<svg xmlns="http://www.w3.org/2000/svg" width="268.027" height="137.554" viewBox="0 0 268.027 137.554"><g transform="translate(1052.271 13.013)"><g transform="translate(4.789 5.269)"><g transform="translate(-978.544 13.077)"><path d="M-884.083,77.355c-.126-.291-.154-.615-.29-.89s-.091-.66-.238-.929-.49-.444-.651-.707-.16-.643-.331-.9-.384-.5-.566-.749-.4-.488-.589-.728-.651-.273-.851-.5c-.216-.255-.349-.575-.57-.819s-.419-.518-.646-.757-.395-.514-.627-.751c.059-.273-.091-.531-.119-.807a2.343,2.343,0,0,0-.182-.771c-.106-.248.013-.654-.182-.871a1.131,1.131,0,0,0-.041.109,1.094,1.094,0,0,1-.306-.617c-.024-.212-.023-.478-.036-.781-.01-.238.036-.5.036-.786s-.182-.594-.174-.918c.007-.291.116-.6.127-.91.01-.3.083-.6.091-.918.011-.3-.084-.607-.073-.922.008-.3.2-.6.212-.91s.1-.61.108-.922-.005-.612-.005-.925-.3-.617-.308-.932.283-.628.273-.943-.077-.621-.091-.938-.127-.615-.154-.932.041-.632.007-.944-.2-.6-.246-.918.08-.642.028-.954-.166-.606-.225-.915-.306-.573-.376-.883-.07-.621-.15-.926-.215-.586-.3-.89-.063-.632-.161-.933c-.091-.282-.328-.518-.432-.8s-.091-.6-.2-.881-.047-.63-.168-.91-.262-.546-.394-.819-.518-.408-.66-.676-.054-.649-.2-.91-.475-.413-.632-.673-.286-.524-.45-.777-.227-.569-.4-.819-.41-.438-.591-.682-.4-.443-.591-.679-.38-.455-.576-.69-.309-.521-.511-.749-.455-.389-.664-.611-.539-.307-.751-.52-.15-.706-.37-.91-.637-.206-.858-.4-.469-.374-.7-.566-.464-.381-.7-.566-.358-.519-.6-.7-.56-.251-.807-.423-.4-.475-.651-.637-.645-.108-.9-.267-.364-.558-.622-.71-.618-.136-.881-.279-.459-.415-.728-.552-.654-.038-.925-.168-.409-.536-.684-.659-.617-.091-.892-.206-.609-.091-.887-.2-.532-.277-.819-.38-.52-.324-.8-.422-.521-.345-.8-.433-.579-.182-.868-.265-.632.026-.92-.05-.536-.329-.824-.4c-.173-.044-.278.067-.446.024.166-.246.077-.576.22-.837a8.256,8.256,0,0,0,.459-.752,8.456,8.456,0,0,0,.217-.858c.085-.28.435-.5.492-.791a8.026,8.026,0,0,0,.135-.894,8.386,8.386,0,0,0,.115-.9c0-.318-.261-.627-.293-.935a9.527,9.527,0,0,0-.01-.954,8.462,8.462,0,0,0-.316-.9,9.634,9.634,0,0,0-.192-.946c-.126-.286-.558-.425-.713-.7s-.072-.705-.255-.959a9.464,9.464,0,0,0-.642-.712,9.477,9.477,0,0,0-.681-.67,9.032,9.032,0,0,0-.684-.674c-.254-.182-.55-.34-.819-.5s-.69-.034-.977-.161a8.133,8.133,0,0,0-.862-.348c-.3-.091-.539-.42-.848-.484a8.679,8.679,0,0,0-.944-.151c-.309-.032-.637.176-.956.176a8.325,8.325,0,0,0-.889.076,8.472,8.472,0,0,0-.879.147c-.285.079-.567.173-.843.28a8.647,8.647,0,0,0-.859.236c-.276.119-.671.011-.931.158a9.21,9.21,0,0,0-.733.558c-.247.174-.552.29-.781.487s-.206.659-.415.876-.523.51-.71.747c-.182-.237-.238-.783-.449-1a8.731,8.731,0,0,0-.718-.579,8.836,8.836,0,0,0-.8-.446,8.66,8.66,0,0,0-.819-.378c-.262-.147-.419-.509-.7-.63a8.673,8.673,0,0,0-.855-.329,8.379,8.379,0,0,0-.9-.182c-.293-.062-.625.182-.928.147a8.477,8.477,0,0,0-.882-.158,9.041,9.041,0,0,0-.926.08c-.316.034-.669-.182-.973-.122s-.554.384-.851.479-.7-.046-.982.081-.392.611-.663.768a8.579,8.579,0,0,0-.819.433,9.2,9.2,0,0,0-.8.5,9.141,9.141,0,0,0-.612.712,8.931,8.931,0,0,0-.621.7c-.182.252-.5.428-.66.7s-.1.654-.228.942a8.829,8.829,0,0,0-.448.832A8.841,8.841,0,0,0-946,20.3a8.861,8.861,0,0,0-.3.91c-.032.308.192.637.192.952s-.316.618-.286.91.091.609.147.9q.154.43.349.843t.4.8q.236.377.508.728c.142.264.129.607.3.852-.169.045-.391-.127-.563-.081-.288.07-.52.376-.81.455s-.6.078-.89.164-.611.06-.9.151-.472.482-.758.58-.6.091-.883.194-.642,0-.922.112-.5.364-.781.478-.465.425-.739.546-.6.135-.868.267-.539.264-.8.4-.472.383-.736.529-.513.306-.771.455-.671.049-.926.207-.356.55-.609.719-.681.065-.928.238-.331.563-.572.743-.51.319-.747.508-.583.233-.819.428-.29.584-.516.785-.537.3-.757.509-.273.584-.479.8-.455.394-.659.609-.524.331-.723.552-.378.469-.57.7-.52.358-.7.59-.364.487-.539.728-.238.575-.409.819-.213.58-.376.829-.319.5-.474.758-.455.428-.6.687-.455.443-.59.705-.015.667-.146.936-.546.415-.663.685-.154.593-.267.869-.024.637-.127.91-.42.49-.514.772c-.1.3-.244.588-.331.886s.139.692.06.993-.14.611-.209.91-.415.558-.472.863.23.679.182.985-.408.572-.45.881.126.649.091.957-.1.622-.124.932-.182.617-.206.925-.1.632-.116.941.321.637.318.943-.251.624-.251.931.055.618.057.918.1.618.106.92-.052.621-.042.921c.011.316-.091.627-.078.923.014.318.106.622.115.917.011.319.005.625.011.915.011.324-.032.628-.032.91,0,.347.091.663.075.941a3.425,3.425,0,0,1-.311.892,1.9,1.9,0,0,1-.054.277l.084.133a.8.8,0,0,0-.046-.146,2.852,2.852,0,0,0-.487.733c-.112.259.161.618.137.9s-.291.506-.231.781c-.221.228-.3.532-.513.767s-.371.513-.586.749-.669.252-.873.493-.389.5-.588.751-.255.6-.447.856-.285.565-.462.829-.358.511-.526.785-.518.426-.671.707-.191.612-.332.9-.327.546-.455.84c-.115.267-.328.509-.435.791s.1.663.007.949-.166.559-.248.85-.364.51-.433.8.046.614-.015.91-.091.578-.142.874-.328.546-.371.843-.091.584-.124.884.221.612.195.91-.413.562-.435.863.358.61.347.91-.273.583-.279.886.126.593.126.9-.273.628-.259.936.016.628.036.936.283.6.314.91.14.607.182.91-.067.637-.015.943.084.618.148.922.267.575.343.876.273.563.364.861-.168.7-.073,1,.249.578.356.868.348.532.467.819.3.546.428.825.241.572.383.847.273.558.42.829.41.475.573.739.374.475.541.728.342.49.521.736.142.646.328.887.52.358.716.59.423.428.627.654.415.43.627.649.364.488.58.7.273.6.5.8.565.277.8.475.537.3.773.49.282.617.523.8.691.083.938.261.472.368.723.539.474.371.728.536.455.408.716.566.539.273.8.428.465.407.733.552.59.176.859.317.447.459.721.594.518.329.8.455.684-.042.963.08.469.443.75.56.615.1.9.209.6.139.886.247.5.364.783.469.6.07.89.166.51.364.8.455.627-.005.917.08.524.335.811.418.627-.015.915.063.557.233.848.307.609.023.9.091.56.22.853.286.575.182.868.241.581.132.874.189.6.057.892.112.537.383.832.433.6.034.9.083.6.06.894.106.593.091.89.13.6.067.894.106.63-.209.929-.176.59.109.889.142.593.091.891.115.57.329.871.356.611-.133.91-.111.6-.023.9,0,.6.039.9.057.583.328.883.343.62-.334.921-.319.591.285.892.295.606-.116.91-.108.6.23.9.234.6-.216.91-.215h.91c.3,0,.617.182.922.182s.61-.311.915-.317.615.016.92.01.614,0,.918-.007.625.264.931.249.6-.3.91-.316.615.052.922.035.609-.06.91-.081.629.173.933.147.586-.355.889-.381.6-.115.91-.146.612,0,.915-.032.637.195.941.158.618,0,.922-.039.56-.415.861-.455.6-.091.9-.137.63.073.929.024.606-.091.9-.147.579-.223.876-.28.628.018.925-.042.555-.314.853-.378.628.021.923-.047.607-.1.9-.171.555-.3.85-.381.618-.049.91-.129.637-.01.926-.091.58-.2.869-.286.511-.407.8-.5.594-.142.881-.239.658.031.943-.073.511-.373.793-.479.513-.356.792-.469.524-.325.8-.444.728.137,1,.013.557-.254.83-.384.4-.573.664-.708.637-.091.91-.228.389-.546.651-.692.713.021.972-.133.5-.384.768-.546.552-.306.811-.478.488-.4.741-.581.572-.286.819-.472.462-.433.706-.628.368-.539.607-.74.386-.5.615-.71.6-.273.819-.49.4-.485.612-.71.579-.316.789-.546.314-.558.516-.8.392-.487.584-.728.264-.579.447-.831.572-.364.747-.618.383-.5.546-.768.2-.6.352-.876.273-.559.41-.835.347-.521.477-.8.047-.651.169-.939.309-.539.419-.83.471-.49.57-.786.092-.625.182-.923.173-.6.247-.9-.106-.66-.044-.964.1-.6.153-.91.119-.6.161-.91.4-.576.428-.887-.1-.632-.08-.942.016-.62.026-.932-.161-.618-.161-.929.2-.6.195-.892-.181-.594-.191-.887-.014-.6-.032-.887.176-.615.15-.91-.319-.572-.352-.862.108-.617.065-.91-.243-.568-.291-.853.1-.627.038-.91-.091-.594-.161-.879-.07-.6-.147-.886-.364-.518-.455-.8-.163-.575-.266-.848S-883.969,77.623-884.083,77.355Zm-39.066-58.9a3.7,3.7,0,0,1,.933.231c.308.081.493.387.762.546s.628.168.85.389.238.575.4.847a3.154,3.154,0,0,1,.373.809,3.249,3.249,0,0,1,.143.886c0,.324.283.684.2.981a3.931,3.931,0,0,1-.478.856,3.221,3.221,0,0,1-1.4,1.244c-.273.156-.506.446-.813.527a3.905,3.905,0,0,1-.969.12c-.319,0-.583-.356-.879-.436a3.415,3.415,0,0,1-.869-.259,3.79,3.79,0,0,1-.837-.446,3.725,3.725,0,0,1-.562-.768,3.618,3.618,0,0,1-.316-.892,3.837,3.837,0,0,1-.309-.928,3.869,3.869,0,0,1,.225-.951,3.818,3.818,0,0,1,.422-.855,3.887,3.887,0,0,1,.5-.819c.221-.221.588-.273.861-.435a3.394,3.394,0,0,1,.873-.273C-923.743,18.748-923.468,18.455-923.149,18.453Zm-14.084,0a3.681,3.681,0,0,1,.931.231c.307.081.492.388.762.546s.625.168.848.389.237.573.394.847a3.107,3.107,0,0,1,.371.807,3.179,3.179,0,0,1,.145.886c0,.324.283.684.2.98a3.824,3.824,0,0,1-.475.856,3.744,3.744,0,0,1-.612.728,3.723,3.723,0,0,1-.789.511c-.273.156-.5.447-.811.529a3.89,3.89,0,0,1-.967.12c-.322,0-.586-.356-.881-.436a3.362,3.362,0,0,1-.872-.259,3.909,3.909,0,0,1-.838-.443,3.806,3.806,0,0,1-.562-.771,3.651,3.651,0,0,1-.316-.89,3.9,3.9,0,0,1-.309-.929,3.893,3.893,0,0,1,.227-.948,3.745,3.745,0,0,1,.423-.855,3.83,3.83,0,0,1,.5-.824c.221-.22.589-.273.862-.433a3.435,3.435,0,0,1,.874-.273c.295-.075.569-.368.888-.369Zm41.643,44.461c-.174-.241-.364-.6-.534-.848s-.148-.611-.311-.871-.492-.392-.646-.658-.119-.614-.267-.883-.308-.5-.449-.775-.287-.518-.419-.8-.555-.4-.681-.68-.136-.6-.252-.881-.189-.57-.3-.858-.156-.607-.273-.89-.4-.5-.526-.783-.246-.566-.373-.842.018-.7-.117-.972-.368-.511-.513-.781-.438-.464-.591-.728-.293-.546-.455-.8-.285-.55-.455-.806-.5-.4-.677-.651-.285-.554-.474-.8-.332-.523-.529-.758-.479-.4-.685-.627-.285-.578-.5-.8-.377-.5-.6-.713-.464-.415-.7-.615-.661-.166-.9-.358-.3-.614-.552-.8-.536-.317-.791-.488-.563-.262-.827-.422-.482-.4-.752-.546-.594-.171-.865-.308-.472-.419-.749-.546-.58-.192-.859-.308-.628-.056-.91-.164-.541-.273-.831-.374-.59-.137-.881-.226-.546-.291-.837-.373-.614-.014-.91-.091-.555-.259-.851-.325-.552-.318-.851-.377-.6-.091-.9-.147-.637.182-.944.14-.562-.339-.863-.38-.628.132-.931.1-.591-.091-.9-.124-.589-.182-.894-.2-.607.041-.91.021-.606.018-.91,0-.6-.016-.91-.028-.6-.122-.91-.129-.607.063-.91.059-.614.168-.925.168-.612-.395-.915-.392-.607.287-.91.295-.609.044-.91.055-.609.024-.91.038-.618-.157-.92-.139-.6.169-.9.194-.621-.112-.921-.084-.578.319-.877.352-.637-.212-.942-.173-.579.273-.879.316-.625-.05-.922,0-.552.364-.848.422-.658-.182-.951-.115-.555.3-.847.37-.546.3-.837.377-.6.1-.883.191-.618.06-.9.157-.63.052-.91.158-.57.218-.847.335-.479.422-.754.546-.628.091-.9.228-.516.321-.78.467-.4.529-.669.691-.566.248-.819.42-.455.414-.705.6-.666.143-.91.335-.484.388-.718.591-.511.364-.737.573-.273.6-.492.819-.527.349-.733.579-.355.509-.552.746-.518.378-.7.622-.117.69-.3.945-.609.327-.782.586-.3.546-.459.807-.316.532-.471.8-.387.492-.532.764-.265.562-.4.84,0,.682-.136.964-.273.546-.391.832-.475.467-.593.757-.234.573-.347.865-.014.65-.126.923-.21.575-.331.847-.238.562-.364.83-.216.576-.35.84-.353.506-.5.765-.531.4-.682.651-.236.562-.392.813-.4.455-.566.7-.215.765-.387,1.006c-.011-.273-.173-.705-.182-.984s.364-.563.352-.842-.091-.546-.1-.819-.154-.55-.156-.831-.119-.55-.119-.831c0-.317.257-.632.264-.952s.025-.632.039-.953-.024-.637,0-.953-.238-.66-.206-.978.182-.622.22-.941.056-.637.106-.953.376-.578.438-.892-.108-.673-.032-.984.423-.546.51-.855-.187-.723-.091-1.029c.091-.282.273-.546.376-.825s.327-.517.443-.8.173-.579.3-.852.3-.523.435-.791.43-.443.579-.707.108-.628.273-.886.425-.436.6-.687.283-.531.464-.773.478-.383.667-.618.192-.617.392-.847.637-.225.845-.447.4-.44.609-.656.331-.511.554-.721.368-.487.593-.684.364-.5.591-.691.59-.23.827-.41.6-.182.842-.364.352-.539.6-.7.546-.257.8-.415.568-.212.827-.358.364-.569.632-.71.584-.182.851-.309.632-.057.9-.182.485-.374.758-.49.478-.419.759-.526.606-.091.886-.195.568-.2.851-.29.536-.3.819-.381.573-.187.861-.267.653.14.943.068.536-.41.835-.478.667.191.969.13.555-.378.856-.432.62-.052.922-.1.637.091.938.047.576-.335.882-.371.627.065.932.036.591-.3.9-.322.622,0,.926-.025.627.116.932.1.614-.056.92-.07.62.147.923.139.617-.032.922-.036.612-.158.91-.161.614-.154.915-.154h.922c.308,0,.606.182.91.182s.6.2.91.206.621-.273.931-.257.594.343.9.358.612-.054.922-.032.627-.164.935-.139.589.288.9.318.6.12.91.156.648-.247.953-.2.611.076.918.125.559.38.863.435.669-.236.972-.176.537.432.838.5.648-.063.948.011.572.182.862.257.534.3.819.383.546.243.83.335.679-.135.96-.032.478.43.757.539.573.171.85.287.583.156.858.279.511.317.781.448.482.364.746.506.563.215.819.364.5.314.759.471.48.356.728.521.55.252.793.426.358.513.6.7.478.35.71.541.511.311.736.51.392.455.609.658.42.428.63.637.677.182.881.4.189.643.383.868.524.349.71.579.44.428.617.667.091.677.254.921.358.48.513.728.459.425.609.682.381.48.519.744.258.546.383.819.044.637.158.91.337.509.438.786.145.584.237.868c.1.3.091.637.182.941s.478.536.552.843.156.625.218.936-.091.667-.038.978.283.607.322.921.1.637.13.953-.176.656-.154.972.029.637.044.954.307.63.313.944-.364.642-.364.957c0,.279.389.559.387.831s-.259.552-.267.824.116.562.109.835-.291.546-.3.819.191.677.181.949Z" transform="translate(978.544 -13.077)" fill="#399d26"/><path d="M-921.805,68.784c0,.378-.02.378-.02.758s.14.377.14.755v.761c0,.38.154.381.154.761s-.273.381-.273.764.2.383.2.764a1.548,1.548,0,0,1-.182.751c-.125.216-.41.287-.63.413s-.41.455-.671.455c-.407,0-.407-.3-.813-.3s-.4-.046-.8-.046-.407.112-.811.112-.408-.049-.811-.049-.407.1-.811.1-.4.026-.806.026-.407-.187-.811-.187-.408.182-.813.182-.407.086-.812.086-.407-.091-.813-.091-.407-.091-.819-.091-.407.169-.813.169-.407-.15-.813-.15-.4.239-.811.239-.407-.347-.819-.347-.409.067-.819.067-.409.062-.819.062-.5-.228-.806.046-.236.376-.273.78.273.436.231.842-.126.4-.164.8-.172.395-.21.8.133.422.091.827-.081.4-.119.807-.15.4-.189.806.139.425.1.832-.282.386-.322.8-.316.637-.023.929.51-.129.922-.166.417,0,.829-.041.423.07.835.032.4-.192.813-.23.407-.091.819-.133.43.148.842.109.387-.308.8-.345.426.086.841.047.426.091.842.049.4-.158.819-.2.435.15.851.112a6.34,6.34,0,0,1,.8-.139c.282.01.583-.168.852-.122s.469.4.728.485.618-.055.862.069.41.394.637.554.335.432.531.624.537.249.7.472a5.62,5.62,0,0,1,.555.649c.126.246.042.591.13.852a6.107,6.107,0,0,1,.327.771c.045.273-.2.565-.2.841a5.1,5.1,0,0,1,.034.807,3.336,3.336,0,0,1-.207,1.647c-.158.383-.392.286-.55.667s-.016.438-.176.819-.171.376-.329.755-.039.428-.2.809-.194.364-.352.747-.368.29-.523.669-.133.388-.29.768-.164.377-.321.757.1.487-.062.868-.283.329-.44.71-.171.374-.328.752,0,.447-.156.829-.378.29-.537.673-.265.337-.42.718-.075.417-.233.8-.182.373-.338.755-.212.364-.368.743.041.464-.117.845-.345.3-.5.684.112.493-.045.876-.212.364-.37.746-.05.43-.21.819-.455.262-.612.648a.491.491,0,0,1-.546.35c-.091,0-.146.032-.234,0-.376-.153-.455.038-.829-.117s-.368-.182-.747-.335-.4-.1-.775-.252-.364-.191-.74-.347-.392-.106-.77-.261-.353-.215-.728-.37-.293-.358-.673-.513-.471.065-.85-.091-.3-.349-.677-.508c-.174-.076-.407-.106-.479-.285s.139-.334.215-.506c.158-.381.047-.428.206-.811s.042-.428.2-.813.182-.37.342-.754.209-.364.364-.749.227-.355.387-.739.2-.364.364-.75.164-.381.327-.765-.073-.48.086-.865.291-.328.45-.713.091-.412.244-.8.163-.384.321-.77.338-.313.495-.7,0-.455.161-.84.166-.386.325-.772c.1-.241.239-.459.329-.685.1-.249.231-.471.314-.692.1-.264.215-.495.285-.7a1.058,1.058,0,0,0-.067-.75c0-.3-.059-.618-.356-.618-.076,0-.246.017-.482.034-.156,0-.371.257-.581.286-.4.042-.41-.091-.811-.052s-.4.023-.8.06-.4.078-.8.115-.423-.187-.825-.148-.377.3-.778.338-.4.081-.8.117-.408-.016-.811.021-.417-.109-.819-.073-.392.129-.791.166-.408-.013-.807.025-.412-.052-.819-.015-.4.106-.8.142-.41-.021-.819.017-.386.233-.789.273c-.216.018-.306-.265-.455-.418s-.438-.243-.417-.455c.038-.4.111-.4.148-.8s-.129-.42-.091-.824.348-.373.386-.773-.255-.43-.217-.834.358-.374.395-.778-.217-.426-.182-.829.182-.388.224-.791-.1-.415-.062-.819.1-.4.142-.8.083-.4.12-.8.135-.395.172-.8.026-.4.063-.811-.036-.412,0-.819.161-.392.2-.8-.3-.436-.264-.838.073-.4.111-.807.231-.388.267-.8-.034-.413,0-.819.488-.609.22-.917-.513.12-.9.12-.392.076-.785.076-.392-.091-.783-.091-.394-.119-.786-.119-.392.223-.786.223-.391-.236-.782-.236-.395.126-.786.126-.395.111-.789.111-.395-.264-.792-.264-.394.161-.791.161a1.529,1.529,0,0,1-.749-.139c-.217-.126-.257-.426-.384-.643s-.325-.391-.325-.651c0-.38.109-.38.109-.757s-.259-.378-.259-.759.273-.378.273-.76.084-.381.084-.762-.091-.38-.091-.762-.176-.383-.176-.764c0-.262.273-.438.4-.649a1.253,1.253,0,0,1,.448-.521,1.292,1.292,0,0,1,.676-.213c.388,0,.388-.057.777-.057s.388-.049.775-.049.389-.07.777-.07.389.166.778.166.389-.1.778-.1.386.052.773.052.389-.047.777-.047.389.1.78.1.389.13.781.13.391-.227.782-.227.415.233.7-.039c.3-.293.069-.334.108-.75s.2-.4.244-.819.049-.415.091-.832-.105-.43-.065-.85-.046-.425-.008-.841-.034-.423.005-.841.157-.4.195-.819.1-.413.14-.831.217-.4.257-.819-.16-.438-.119-.859.241-.4.279-.819c.036-.373.169-.6.539-.6.418,0,.418.111.834.111s.419-.172.837-.172.417-.052.834-.052.417.05.832.05.418-.055.837-.055.419.059.838.059.419.023.84.023.42.1.841.1c.2,0,.467-.115.6.032a.874.874,0,0,1,.129.62c-.039.412-.166.4-.2.811s.241.438.2.848-.156.4-.195.811-.257.389-.295.8.273.441.234.852-.1.4-.14.819l-.078.819c-.038.412-.135.4-.176.819s.147.43.106.844-.389.38-.429.8-.137.5.139.807.364.078.771.078.408.106.819.106.408-.036.819-.036.409-.047.819-.047.4-.073.819-.073.4.182.819.182.41-.135.819-.135.409-.14.819-.14.408.125.819.125.409-.059.819-.059.408-.016.819-.016.407.063.819.063.409.065.819.065.409.076.819.076.415-.262.824-.262.412.249.825.249.413-.273.825-.273a1.745,1.745,0,0,1,.8.182c.217.126.282.471.408.69A1.311,1.311,0,0,1-921.805,68.784Zm28.8,9.937c0,.436.067.436.067.873s.062.438.062.877.052.438.052.877-.206.441-.206.882.311.44.311.881a.753.753,0,0,1-.721.637c-.391,0-.391-.135-.785-.135s-.391.172-.786.172-.391-.044-.785-.044-.392-.112-.785-.112-.394.176-.789.176-.391-.247-.786-.247-.392.014-.785.014-.392.129-.785.129-.395-.038-.789-.038-.395-.108-.789-.108-.395.153-.793.153-.485-.257-.751.036c-.293.324-.172.4-.172.835s.273.435.273.869-.127.438-.127.876-.126.438-.126.876.121.438.121.879-.446.694-.137,1.006.563-.06,1-.06.43-.21.863-.21.435.295.869.295.433-.265.868-.265.436.146.872.146.435.136.871.136c.332,0,.654.1.654.428,0,.4.126.4.126.8s-.212.4-.212.8.129.4.129.8-.273.4-.273.8.078.4.078.8.158.4.158.806.063.4.063.8c0,.328-.389.467-.721.467-.432,0-.432.148-.862.148s-.433-.016-.862-.016-.435.127-.869.127-.435-.039-.868-.039-.435-.23-.871-.23-.618-.231-.946.054c-.288.254-.054.471-.057.855s.273.387.273.772-.14.386-.143.771-.016.386-.025.771c-.011.267.133.55.1.811s-.317.485-.373.74-.234.472-.313.721a7.748,7.748,0,0,1-.182.762c-.1.242-.228.465-.35.7s-.293.425-.433.648-.109.557-.267.767-.482.279-.656.477-.148.586-.339.768-.433.317-.637.48-.364.417-.579.563-.609.013-.841.14-.455.23-.7.338-.459.241-.71.328-.441.358-.7.425-.523.091-.785.139a7.918,7.918,0,0,1-.785.163c-.264.021-.536-.005-.8-.005s-.562.042-.831.02-.546-.125-.813-.171-.489-.318-.751-.387-.6.073-.852-.02-.428-.392-.674-.509-.56-.106-.8-.243-.337-.477-.56-.637-.5-.223-.712-.4-.495-.273-.688-.461a7.574,7.574,0,0,1-.534-.625c-.17-.207-.3-.455-.455-.681s-.238-.49-.376-.728-.215-.492-.329-.74-.21-.489-.3-.747-.41-.438-.48-.7.01-.563-.039-.834-.157-.527-.182-.8-.034-.546-.034-.819.2-.539.226-.809-.111-.565-.063-.832.116-.539.187-.8.2-.511.3-.767a7.892,7.892,0,0,1,.364-.736c.123-.247.267-.469.407-.7s.05-.627.209-.85.539-.28.716-.489.364-.4.558-.591.247-.55.455-.728.511-.243.736-.4.467-.29.705-.428.462-.3.713-.412.583-.008.841-.1.436-.425.7-.495.529-.171.8-.22.558-.028.832-.052.55.114.827.114c.41,0,.41-.091.819-.091s.412.049.819.049.612.34.91.055-.029-.489-.029-.89.059-.4.059-.8-.2-.4-.2-.8.261-.4.261-.8-.262-.4-.262-.8.076-.4.076-.8-.167-.4-.167-.8.309-.4.309-.8-.295-.4-.295-.806.319-.4.319-.8-.255-.4-.255-.8.15-.4.15-.8-.139-.4-.139-.8.065-.4.065-.8.049-.4.049-.8.091-.4.091-.806-.011-.4-.011-.807-.073-.4-.073-.811.122-.4.122-.811c0-.329.108-.778.438-.778.4,0,.4.035.8.035s.4.192.8.192.4-.072.8-.072.4.182.8.182.4-.174.8-.174.4-.076.806-.076.4.091.8.091c.331,0,.475.267.475.6,0,.44.224.44.224.881s-.237.443-.237.886.127.443.127.887.111.444.111.89-.518.661-.225,1c.258.293.514-.106.905-.106s.394-.063.787-.063.392.192.786.192.392-.153.785-.153.392.112.788.112.394-.261.786-.261.392.273.786.273.391.084.783.084.395-.091.789-.091.395-.172.791-.172.4.221.793.221.4-.054.791-.054c.313.007.422.2.422.523Zm-16.146,19.615a1.749,1.749,0,0,0-.52-1.5,3.052,3.052,0,0,0-.477-.618c-.182-.182-.474-.213-.7-.343s-.364-.477-.614-.546-.539.091-.8.091a2.778,2.778,0,0,0-.747.119,3.213,3.213,0,0,0-.772.154c-.224.13-.252.5-.436.679s-.572.2-.7.422a3.252,3.252,0,0,0-.35.728,3.369,3.369,0,0,0,.007.806,1.76,1.76,0,0,0,.446,1.473,2.771,2.771,0,0,0,.489.59c.182.182.288.5.51.627s.546.063.8.13a3,3,0,0,0,.755.014,3.017,3.017,0,0,0,.758-.005,3.067,3.067,0,0,0,.75-.217c.225-.129.327-.417.508-.6s.455-.291.583-.514,0-.532.072-.783S-909.154,98.6-909.154,98.336Z" transform="translate(976.448 -17.085)" fill="#fff"/></g></g><g transform="translate(10 10)"><path d="M-836.685-5.977A31.459,31.459,0,0,0-874.1,18.088a31.458,31.458,0,0,0,24.064,37.419,31.459,31.459,0,0,0,37.42-24.063A31.5,31.5,0,0,0-836.685-5.977Z" fill="#ffda2d"/><path d="M-836.567-5.949l-13.355,61.482A31.458,31.458,0,0,0-812.5,31.47,31.458,31.458,0,0,0-836.567-5.949Z" fill="#fdbf00"/><path d="M-847.933,39.435l-7.419-1.612,6.2-28.54,11.817,2.566q4.808,1.044,6.819,4.1a9.619,9.619,0,0,1,1.027,7.591,9.62,9.62,0,0,1-4.083,6.481q-3.1,1.944-7.905.9l-4.4-.956ZM-844.579,24l2.46.534q4.089.888,4.861-2.67t-3.315-4.446l-2.46-.534Z" fill="#997d00"/></g><path d="M-984.765-6.609a14.315,14.315,0,0,0-10.12,17.535,14.315,14.315,0,0,0,17.534,10.12,14.315,14.315,0,0,0,10.12-17.535h0A14.331,14.331,0,0,0-984.765-6.609Z" fill="#ffda2d"/><path d="M-984.712-6.622l7.414,27.654a14.315,14.315,0,0,0,9.973-17.619A14.315,14.315,0,0,0-984.712-6.622Z" fill="#fdbf00"/><path d="M-979.848,14.1l-3.336.894-3.442-12.837,5.313-1.424A4.7,4.7,0,0,1-977.7.973,5.114,5.114,0,0,1-976,7.306a4.7,4.7,0,0,1-3.011,2.012l-1.974.529Zm-1.862-6.947,1.107-.3q1.836-.493,1.406-2.093t-2.264-1.109l-1.107.3Z" fill="#997d00"/><g transform="translate(-10 10)"><path d="M-1020.595,33.925a19.5,19.5,0,0,0-8.063,26.373,19.5,19.5,0,0,0,26.373,8.062,19.5,19.5,0,0,0,8.062-26.372A19.522,19.522,0,0,0-1020.595,33.925Z" fill="#ffda2d"/><path d="M-1020.53,33.892l18.309,34.435a19.5,19.5,0,0,0,8.063-26.372A19.5,19.5,0,0,0-1020.53,33.892Z" fill="#fdbf00"/><path d="M-1007.727,59.912l-4.155,2.209-8.5-15.981,6.612-3.516a6.408,6.408,0,0,1,4.868-.793,6.962,6.962,0,0,1,4.192,7.886,6.41,6.41,0,0,1-3.38,3.589l-2.459,1.307Zm-4.6-8.653,1.378-.733q2.289-1.217,1.23-3.21t-3.349-.775l-1.379.732Z" fill="#997d00"/></g><path d="M-808.383-8.6c-1.026,1.426-3.924,7.551-5.581,11.12a.56.56,0,0,0,.893.643c2.859-2.7,7.748-7.395,8.775-8.821a2.518,2.518,0,0,0-.572-3.514A2.518,2.518,0,0,0-808.383-8.6Z" transform="translate(10 10)" fill="#ffda2d"/><path d="M-800.035.993c-1.638.637-7.4,4.2-10.738,6.286a.56.56,0,0,0,.4,1.025c3.87-.71,10.526-1.981,12.164-2.618a2.518,2.518,0,0,0,1.434-3.259A2.518,2.518,0,0,0-800.035.993Z" transform="translate(10 10)" fill="#ffda2d"/><path d="M-796.313,13.351c-1.73-.313-8.505-.292-12.44-.251a.56.56,0,0,0-.2,1.083c3.671,1.417,10.01,3.81,11.74,4.123a2.518,2.518,0,0,0,2.925-2.03A2.517,2.517,0,0,0-796.313,13.351Z" transform="translate(10 10)" fill="#ffda2d"/><path d="M-1003.835,2.476c.972.112,4.738-.14,6.923-.3a.312.312,0,0,0,.071-.609c-2.091-.657-5.7-1.763-6.672-1.875a1.4,1.4,0,0,0-1.554,1.232A1.4,1.4,0,0,0-1003.835,2.476Z" fill="#ffda2d"/><path d="M-1001.435-4.186c.754.623,4.049,2.463,5.971,3.517a.311.311,0,0,0,.39-.472c-1.4-1.69-3.819-4.582-4.573-5.206a1.4,1.4,0,0,0-1.974.186A1.4,1.4,0,0,0-1001.435-4.186Z" fill="#ffda2d"/><path d="M-996.434-9.349c.317.926,2.166,4.216,3.253,6.118a.312.312,0,0,0,.58-.2c-.307-2.17-.863-5.9-1.18-6.828a1.4,1.4,0,0,0-1.78-.873A1.4,1.4,0,0,0-996.434-9.349Z" fill="#ffda2d"/><path d="M-1038.1,59.6c.8-.57,3.413-3.288,4.922-4.877a.312.312,0,0,0-.357-.5c-1.989.918-5.4,2.526-6.2,3.1a1.4,1.4,0,0,0-.322,1.957A1.4,1.4,0,0,0-1038.1,59.6Z" transform="translate(-10 10)" fill="#ffda2d"/><path d="M-1040.8,53.052c.978-.045,4.654-.9,6.785-1.41a.312.312,0,0,0-.028-.612c-2.169-.313-5.908-.825-6.886-.78a1.4,1.4,0,0,0-1.336,1.466A1.4,1.4,0,0,0-1040.8,53.052Z" transform="translate(-10 10)" fill="#ffda2d"/><path d="M-1040.572,45.868c.857.472,4.437,1.665,6.522,2.342a.311.311,0,0,0,.3-.536c-1.686-1.4-4.606-3.79-5.464-4.262a1.4,1.4,0,0,0-1.9.551A1.4,1.4,0,0,0-1040.572,45.868Z" transform="translate(-10 10)" fill="#ffda2d"/><path d="M-889.574,8.695c0-4.059-6.8-10.854-10.854-10.854,4.059,0,10.854-6.8,10.854-10.854,0,4.059,6.795,10.854,10.854,10.854C-882.779-2.159-889.574,4.636-889.574,8.695Z" fill="#ffd83b"/><path d="M-1016.638,22.477c0-2.091-3.5-5.59-5.591-5.59,2.092,0,5.591-3.5,5.591-5.59,0,2.091,3.5,5.59,5.59,5.59C-1013.139,16.889-1016.638,20.388-1016.638,22.477Z" fill="#ffd83b"/><path d="M-946.91,2.99c0-2.9-4.856-7.759-7.758-7.759,2.9,0,7.758-4.856,7.758-7.759,0,2.9,4.857,7.759,7.759,7.759C-942.053-4.769-946.91.087-946.91,2.99Z" fill="#ffd83b"/><path d="M-996.458,98.429c0-2.9-4.857-7.759-7.759-7.759,2.9,0,7.759-4.856,7.759-7.758,0,2.9,4.856,7.758,7.758,7.758C-991.6,90.67-996.458,95.527-996.458,98.429Z" fill="#ffd83b"/></g></svg>